<svg xmlns="http://www.w3.org/2000/svg" xmlns:xlink="http://www.w3.org/1999/xlink" xmlns:svgjs="http://svgjs.dev/svgjs" version="1.1" viewBox="-5 -40 60 60" width="100%" height="100%"  preserveAspectRatio="xMinYMin meet"><path xmlns="http://www.w3.org/2000/svg" d="M6.35 4.95L6.35 4.95Q3.25 4.95 1.43 3.13-0.4 1.3-0.4-1.8L-0.4-1.8Q-0.4-3.95 0.25-6.28 0.9-8.6 2.15-11.1L2.15-11.1Q3.75-14.3 6.03-16.88 8.3-19.45 11.03-20.95 13.75-22.45 16.65-22.45L16.65-22.45Q18.55-22.45 19.43-21.53 20.3-20.6 20.3-19.1L20.3-19.1Q20.3-17.8 19.75-16.23 19.2-14.65 18.43-13.33 17.65-12 16.85-11.3L16.85-11.3Q16.65-11.1 16.4-11.1L16.4-11.1Q16.15-11.1 16.15-11.35L16.15-11.35Q16.15-11.7 16.5-12.05L16.5-12.05Q17.35-12.8 18.05-14.45 18.75-16.1 18.75-17.6L18.75-17.6Q18.75-18.9 18.15-19.68 17.55-20.45 16.25-20.45L16.25-20.45Q12.65-20.45 9.25-17.35L9.25-17.35Q7-15.3 5.2-12.6 3.4-9.9 2.3-7.13 1.2-4.35 0.95-2.05L0.95-2.05Q0.8-0.3 1.53 1.18 2.25 2.65 3.6 3.48 4.95 4.3 6.65 4.15L6.65 4.15Q11.2 3.75 15.55-0.03 19.9-3.8 24.75-10.45L24.75-10.45Q24.15-11.05 23.95-11.9L23.95-11.9Q23.85-12.7 24.28-13.18 24.7-13.65 25.35-13.65L25.35-13.65Q26.2-13.65 26.7-13.15L26.7-13.15Q27.55-14.65 29.85-18.55L29.85-18.55Q30.15-19.05 30.88-20.28 31.6-21.5 32.45-23.03 33.3-24.55 34-25.9L34-25.9Q34.05-25.95 34.05-26.1L34.05-26.1Q34.05-26.2 33.8-26.55L33.8-26.55Q33.45-26.8 33.7-27.1L33.7-27.1 35-29.75Q35.25-30.15 35.85-30.15L35.85-30.15Q36.45-30.15 36.98-29.85 37.5-29.55 37.45-29.2L37.45-29.2Q36.9-26.9 34.63-22.93 32.35-18.95 28.75-13.5L28.75-13.5Q28.15-12.6 27.75-12.2L27.75-12.2 27.65-12.1Q27.5-11.95 27.55-11.7L27.55-11.7 27.65-10.95Q28.4-10.7 28.75-10.7L28.75-10.7Q30.45-10.7 32.35-11.28 34.25-11.85 36.02-12.75 37.8-13.65 39.05-14.55L39.05-14.55Q42.25-16.9 44.48-19.38 46.7-21.85 48.3-24.7L48.3-24.7Q48.55-25.3 48.55-26.15L48.55-26.15Q48.65-26.7 48.83-27.2 49-27.7 49.25-28.05L49.25-28.05Q49.45-28.4 50.05-28.4L50.05-28.4Q50.65-28.4 51.13-28.08 51.6-27.75 51.5-27.3L51.5-27.3Q51.05-25.5 49.3-23.05 47.55-20.6 45.08-18.1 42.6-15.6 39.85-13.6L39.85-13.6Q38.45-12.55 36.52-11.63 34.6-10.7 32.55-10.13 30.5-9.55 28.6-9.55L28.6-9.55 28.05-9.55Q28.45-7.7 29-6.3 29.55-4.9 30.55-3.45L30.55-3.45Q31.6-2 32.7-1.07 33.8-0.15 35.25-0.15L35.25-0.15Q36.2-0.15 37.35-0.48 38.5-0.8 38.8-1.3L38.8-1.3Q39.1-1.75 39.55-1.75L39.55-1.75Q39.9-1.75 39.9-1.5L39.9-1.5Q39.9-1.35 39.75-1.1L39.75-1.1Q39.3-0.45 38.27 0.43 37.25 1.3 36.2 1.93 35.15 2.55 34.45 2.55L34.45 2.55Q32.55 2.4 31.25 1.35 29.95 0.3 28.75-2.05L28.75-2.05Q28-3.65 27.25-6.15L27.25-6.15 26.7-8Q26.6-8.55 26.45-9 26.3-9.45 26.2-9.8L26.2-9.8 25.95-9.9Q20.85-3 15.85 0.95 10.85 4.9 6.35 4.95Z" opacity="1" transform="matrix(1,0,0,1,0,0)" fill="black" class="wordmark-text-0" data-fill-palette-color="primary" id="text-0"/></svg>