<svg xmlns="http://www.w3.org/2000/svg" xmlns:xlink="http://www.w3.org/1999/xlink" width="100%" height="100%" viewBox="0 0 1080 800" preserveAspectRatio="xMinYMin meet"  xmlns:drawsvg="http://www.drawsvg.org"><rect id="svgEditorBackground" x="0" y="0" width="1320" height="700" style="fill: none; stroke: none;"/><ellipse id="e6_ellipse" cx="321.261000" cy="350.225000" style="fill:black;stroke:black;stroke-width:1px" rx="31.960000" ry="15.980000" transform="matrix(2.68236 0 0 2.68236 -678.018 -357.764)"/><ellipse id="e7_ellipse" cx="608.786000" cy="347.415000" style="fill:black;stroke:black;stroke-width:1px" rx="31.960000" ry="15.980000" transform="matrix(2.68235 0 0 2.68235 -678.018 -357.764)"/><g id="e14_group" transform="matrix(1.15618 0 0 1.15618 394.468 55.4793)"/><g id="e16_group" transform="matrix(-1.15618 0 0 1.15618 788.612 55.4801)"/><path d="M392.218,341.725c50.855,.64,163.7,7.488,199.984,-4.545c9.014,-33.623,-4.595,-92.698,-14.392,-106.81c-11.313,-13.983,-14.258,-14.783,-24.999,-23.862c-10.361,-9.079,-34.848,-23.389,-76.888,-23.483c-35.98,.662,-43.003,9.456,-54.92,17.497c-10.023,10.443,-25.698,17.252,-42.043,56.74c-11.989,57.893,-5.403,57.128,-3.409,83.706Z" style="stroke:black;fill:black;stroke-width:1px" id="e18_area3" transform="matrix(2.51536 0 0 2.14848 -631.372 -167.255)"/><circle id="e19_circle" cx="403.066000" cy="252.866000" style="fill:white;stroke:black;stroke-width:1px" r="64.815000" transform="matrix(1.07668 0 0 1.07668 31.9014 157.393)"/><ellipse id="e21_ellipse" cx="442.694000" cy="282.732000" style="fill:black;stroke:black;stroke-width:1px" rx="23.787400" ry="28.503700" transform="matrix(2.14596 0 0 2.14596 -484.333 -174.847)"/><ellipse id="e22_ellipse" cx="445.724000" cy="274.400000" style="fill:white;stroke:black;stroke-width:1px" rx="12.341900" ry="13.211000" transform="matrix(2.14596 0 0 2.14596 -484.333 -174.847)"/><circle id="e20_circle" cx="626.749000" cy="247.346000" style="fill:white;stroke:black;stroke-width:1px" r="64.815000" transform="matrix(1.07668 0 0 1.07668 31.9007 157.392)"/><ellipse id="e23_ellipse" cx="554.922000" cy="279.963000" style="fill:black;stroke:black;stroke-width:1px" rx="23.787400" ry="28.503700" transform="matrix(2.14596 0 0 2.14596 -484.333 -174.847)"/><ellipse id="e24_ellipse" cx="550.755000" cy="272.389000" style="fill:white;stroke:black;stroke-width:1px" rx="12.341900" ry="13.211000" transform="matrix(2.14596 0 0 2.14596 -484.333 -174.847)"/><path d="M383.541032,241.766995c7.5039,-4.0646,12.8103,-10.8805,25.6995,-16.7157c-15.0195,-7.7497,-30.1595,-12.8463,-32.6214,-8.9101c-2.462,7.6917,3.3944,20.7803,6.0383,25.6258Z" style="stroke:black;fill:black;stroke-width:1px" id="e27_area3" transform="matrix(5.65789 -1.2747 1.2747 5.65789 -2150.01 -499.938)"/><path d="M449.289233,251.79455c7.5039,-4.0646,12.8103,-10.8805,25.6995,-16.7157c-15.0195,-7.7497,-30.1595,-12.8463,-32.6214,-8.9101c-2.462,7.6917,3.3944,20.7803,6.0383,25.6258Z" style="stroke:black;fill:black;stroke-width:1px" id="e28_area3" transform="matrix(-5.79745 -0.16209 -0.16209 5.79745 3472.84 -1046.06)"/><path d="M487.250838,330.668306v15.035" style="fill:none;stroke:white;stroke-width:5px" id="e30_pathV" transform="matrix(2.51536 0 0 2.51536 -631.372 -294.94)"/><path d="M477.5484,320.2281c.3044,-4.4807,20.7279,-4.5369,21.015,.571c.287,4.594,-7.3606,11.4135,-11.1927,11.1642c-3.8321,-.2492,-10.1266,-6.7407,-9.8222,-11.2213Z" style="stroke:black;fill:white;stroke-width:1px" id="e32_area3" transform="matrix(2.51536 0 0 2.51536 -631.372 -294.94)"/></svg>